<svg width="126" height="51" viewBox="0 0 126 51" fill="none" xmlns="http://www.w3.org/2000/svg">
    <circle cx="25.5" cy="25.5" r="25.5" fill="#E4E4E4"/>
    <path d="M26.464 26.992H31.024V40H26.464V26.992ZM28.744 25.552C27.912 25.552 27.24 25.32 26.728 24.856C26.216 24.392 25.96 23.816 25.96 23.128C25.96 22.44 26.216 21.864 26.728 21.4C27.24 20.936 27.912 20.704 28.744 20.704C29.576 20.704 30.248 20.928 30.76 21.376C31.272 21.808 31.528 22.368 31.528 23.056C31.528 23.776 31.272 24.376 30.76 24.856C30.248 25.32 29.576 25.552 28.744 25.552Z" fill="#DE4878"/>
    <path d="M40.1074 40.336C38.7474 40.336 37.4274 40.168 36.1474 39.832C34.8674 39.496 33.8274 39.048 33.0274 38.488L34.5874 34.984C35.3394 35.48 36.2114 35.88 37.2034 36.184C38.1954 36.488 39.1714 36.64 40.1314 36.64C41.9554 36.64 42.8674 36.184 42.8674 35.272C42.8674 34.792 42.6034 34.44 42.0754 34.216C41.5634 33.976 40.7314 33.728 39.5794 33.472C38.3154 33.2 37.2594 32.912 36.4114 32.608C35.5634 32.288 34.8354 31.784 34.2274 31.096C33.6194 30.408 33.3154 29.48 33.3154 28.312C33.3154 27.288 33.5954 26.368 34.1554 25.552C34.7154 24.72 35.5474 24.064 36.6514 23.584C37.7714 23.104 39.1394 22.864 40.7554 22.864C41.8594 22.864 42.9474 22.992 44.0194 23.248C45.0914 23.488 46.0354 23.848 46.8514 24.328L45.3874 27.856C43.7874 26.992 42.2354 26.56 40.7314 26.56C39.7874 26.56 39.0994 26.704 38.6674 26.992C38.2354 27.264 38.0194 27.624 38.0194 28.072C38.0194 28.52 38.2754 28.856 38.7874 29.08C39.2994 29.304 40.1234 29.536 41.2594 29.776C42.5394 30.048 43.5954 30.344 44.4274 30.664C45.2754 30.968 46.0034 31.464 46.6114 32.152C47.2354 32.824 47.5474 33.744 47.5474 34.912C47.5474 35.92 47.2674 36.832 46.7074 37.648C46.1474 38.464 45.3074 39.12 44.1874 39.616C43.0674 40.096 41.7074 40.336 40.1074 40.336ZM57.7105 26.776C58.8945 26.776 59.9665 27.056 60.9265 27.616C61.9025 28.16 62.6705 28.944 63.2305 29.968C63.8065 30.976 64.0945 32.152 64.0945 33.496C64.0945 34.84 63.8065 36.024 63.2305 37.048C62.6705 38.056 61.9025 38.84 60.9265 39.4C59.9665 39.944 58.8945 40.216 57.7105 40.216C56.1905 40.216 54.9825 39.76 54.0865 38.848V44.656H49.5265V26.992H53.8705V28.288C54.7185 27.28 55.9985 26.776 57.7105 26.776ZM56.7505 36.592C57.5505 36.592 58.2065 36.32 58.7185 35.776C59.2305 35.216 59.4865 34.456 59.4865 33.496C59.4865 32.536 59.2305 31.784 58.7185 31.24C58.2065 30.68 57.5505 30.4 56.7505 30.4C55.9505 30.4 55.2945 30.68 54.7825 31.24C54.2705 31.784 54.0145 32.536 54.0145 33.496C54.0145 34.456 54.2705 35.216 54.7825 35.776C55.2945 36.32 55.9505 36.592 56.7505 36.592ZM79.51 33.52C79.51 33.552 79.486 33.928 79.438 34.648H69.982C70.174 35.32 70.542 35.84 71.086 36.208C71.646 36.56 72.342 36.736 73.174 36.736C73.798 36.736 74.334 36.648 74.782 36.472C75.246 36.296 75.71 36.008 76.174 35.608L78.574 38.104C77.31 39.512 75.462 40.216 73.03 40.216C71.51 40.216 70.174 39.928 69.022 39.352C67.87 38.776 66.974 37.976 66.334 36.952C65.71 35.928 65.398 34.768 65.398 33.472C65.398 32.192 65.702 31.048 66.31 30.04C66.934 29.016 67.79 28.216 68.878 27.64C69.966 27.064 71.19 26.776 72.55 26.776C73.846 26.776 75.022 27.048 76.078 27.592C77.134 28.12 77.966 28.896 78.574 29.92C79.198 30.928 79.51 32.128 79.51 33.52ZM72.574 30.016C71.87 30.016 71.278 30.216 70.798 30.616C70.334 31.016 70.038 31.56 69.91 32.248H75.238C75.11 31.56 74.806 31.016 74.326 30.616C73.862 30.216 73.278 30.016 72.574 30.016ZM86.8049 26.776C88.9649 26.776 90.6129 27.272 91.7489 28.264C92.8849 29.24 93.4529 30.744 93.4529 32.776V40H89.2049V38.32C88.5489 39.584 87.2689 40.216 85.3649 40.216C84.3569 40.216 83.4849 40.04 82.7489 39.688C82.0129 39.336 81.4529 38.864 81.0689 38.272C80.7009 37.664 80.5169 36.976 80.5169 36.208C80.5169 34.976 80.9889 34.024 81.9329 33.352C82.8769 32.664 84.3329 32.32 86.3009 32.32H88.8929C88.8129 30.944 87.8929 30.256 86.1329 30.256C85.5089 30.256 84.8769 30.36 84.2369 30.568C83.5969 30.76 83.0529 31.032 82.6049 31.384L81.0689 28.288C81.7889 27.808 82.6609 27.44 83.6849 27.184C84.7249 26.912 85.7649 26.776 86.8049 26.776ZM86.6369 37.336C87.1649 37.336 87.6289 37.208 88.0289 36.952C88.4289 36.696 88.7169 36.32 88.8929 35.824V34.696H86.9249C85.5969 34.696 84.9329 35.136 84.9329 36.016C84.9329 36.416 85.0849 36.736 85.3889 36.976C85.6929 37.216 86.1089 37.336 86.6369 37.336ZM102.235 35.44L100.891 36.808V40H96.3312V22.192H100.891V31.528L105.547 26.992H110.947L105.547 32.56L111.403 40H105.883L102.235 35.44Z" fill="#2D2D2D"/>
</svg>
